 <svg  version="1.0" xmlns="http://www.w3.org/2000/svg"  width="200.000000pt" height="200.000000pt" viewBox="0 0 200.000000 200.000000"  preserveAspectRatio="xMidYMid meet">  <g transform="translate(0.000000,200.000000) scale(0.100000,-0.100000)" fill="#f7f7f7" stroke="none"> <path d="M260 1349 c-70 -21 -125 -82 -144 -161 l-6 -28 60 0 c47 0 60 3 60 15 0 9 11 27 25 40 73 74 190 -25 126 -106 -10 -13 -75 -62 -145 -109 l-126 -85 2 -63 3 -64 169 1 c201 2 222 9 228 71 l4 40 -115 0 -114 0 74 49 c121 79 149 119 149 212 0 52 -24 112 -56 140 -52 46 -134 66 -194 48z m114 -53 c52 -22 88 -76 89 -133 1 -75 -20 -102 -145 -188 -62 -42 -119 -80 -125 -82 -7 -3 -13 -14 -13 -24 0 -18 10 -19 138 -20 103 -1 129 -3 104 -10 -18 -5 -83 -8 -145 -7 l-112 3 0 29 c0 26 13 38 120 112 142 97 160 118 159 183 -1 103 -102 161 -194 112 -19 -10 -41 -30 -48 -45 -13 -25 -32 -36 -32 -17 0 18 54 74 85 87 39 17 78 17 119 0z"/> <path d="M1166 1326 c-43 -57 -29 -108 29 -108 59 0 72 56 26 110 l-28 33 -27 -35z"/> <path d="M563 1163 c-25 -37 -31 -224 -10 -275 35 -83 157 -124 237 -80 34 19 35 19 67 -1 45 -26 135 -21 179 11 58 44 68 74 72 216 5 149 1 156 -75 156 l-44 0 2 -132 c1 -116 -1 -133 -17 -145 -25 -18 -58 -16 -77 5 -14 15 -17 41 -17 140 0 119 0 122 -24 128 -13 3 -38 4 -55 2 l-32 -3 -2 -128 c-2 -114 -4 -130 -21 -143 -29 -21 -63 -17 -80 8 -12 17 -16 50 -16 145 l0 123 -35 0 c-27 0 -39 -6 -52 -27z m269 -138 c3 -109 4 -116 30 -141 21 -21 37 -27 73 -28 41 -1 50 3 76 32 28 32 29 35 29 142 0 67 4 110 10 110 16 0 13 -206 -4 -239 -22 -41 -63 -64 -115 -64 -38 0 -49 5 -77 35 l-32 36 -21 -29 c-39 -53 -132 -57 -179 -7 -31 34 -42 72 -41 141 2 105 17 123 18 22 1 -114 19 -154 76 -174 36 -12 45 -12 77 3 49 23 58 51 58 171 0 58 4 105 9 105 5 0 11 -52 13 -115z"/> <path d="M1140 1024 c0 -203 8 -230 69 -236 l41 -4 0 198 c0 152 -3 198 -12 199 -7 0 -32 2 -55 4 l-43 3 0 -164z m59 -31 c0 -92 -4 -140 -9 -128 -5 11 -9 74 -9 141 -1 106 2 134 16 134 2 0 3 -66 2 -147z"/> <path d="M1411 1180 c-49 -12 -83 -40 -109 -91 -21 -39 -23 -55 -20 -144 5 -128 20 -160 73 -159 l37 1 -1 117 c-2 135 9 166 58 166 52 0 61 -23 61 -159 l0 -122 53 3 52 3 3 115 c4 140 -1 171 -35 210 -44 53 -109 75 -172 60z m116 -72 c14 -13 32 -37 39 -55 16 -38 19 -209 4 -218 -6 -4 -10 30 -10 95 0 114 -12 150 -60 175 -36 19 -63 19 -99 1 -40 -21 -51 -56 -51 -162 0 -61 -4 -93 -10 -89 -14 9 -12 185 3 215 7 13 28 35 47 48 43 29 99 25 137 -10z"/> <path d="M1784 1181 c-44 -11 -91 -47 -111 -84 -14 -25 -18 -64 -21 -172 -2 -77 -9 -146 -14 -152 -6 -7 -31 -13 -57 -13 -57 0 -71 -12 -71 -62 0 -35 2 -38 41 -48 49 -14 92 -6 140 25 60 39 74 80 76 235 3 151 10 166 70 156 35 -5 36 -3 48 65 4 20 3 39 -2 42 -18 11 -70 15 -99 8z m56 -51 c0 -5 -9 -10 -21 -10 -30 0 -76 -29 -88 -57 -6 -13 -11 -81 -11 -151 0 -145 -13 -182 -75 -208 -40 -16 -85 -19 -85 -4 0 6 16 10 36 10 28 0 44 8 70 34 l34 34 0 131 c0 148 9 179 63 211 34 21 77 27 77 10z"/> <path d="M127 704 c-15 -29 -15 -29 14 -29 33 0 33 1 15 34 l-14 25 -15 -30z"/> <path d="M210 700 c0 -27 3 -31 23 -28 16 2 22 10 22 28 0 18 -6 26 -22 28 -20 3 -23 -1 -23 -28z m38 -3 c2 -10 -3 -17 -12 -17 -10 0 -16 9 -16 21 0 24 23 21 28 -4z"/> <path d="M306 699 c17 -33 28 -30 38 11 7 24 6 24 -8 6 -14 -17 -16 -17 -22 -3 -3 10 -10 17 -15 17 -5 0 -2 -14 7 -31z"/> <path d="M390 701 c0 -20 6 -30 20 -34 11 -3 20 -1 20 4 0 5 -8 9 -17 10 -15 0 -15 2 2 9 17 7 17 9 3 9 -10 1 -18 5 -18 10 0 5 8 12 18 14 13 4 11 5 -5 6 -19 1 -23 -4 -23 -28z"/> <path d="M470 698 c0 -24 3 -29 9 -19 7 12 13 12 24 3 11 -10 14 -7 15 18 1 25 -3 30 -24 30 -20 0 -24 -5 -24 -32z"/> <path d="M568 700 c5 -36 22 -40 22 -6 0 13 6 27 13 29 6 3 0 6 -14 6 -23 1 -25 -2 -21 -29z"/> <path d="M694 719 c-4 -7 1 -16 12 -22 18 -10 18 -11 -1 -17 -15 -5 -16 -8 -3 -12 8 -4 21 -2 29 3 11 8 10 13 -9 28 -20 18 -21 20 -5 24 16 4 16 5 1 6 -9 0 -20 -4 -24 -10z"/> <path d="M830 725 c-1 -5 -3 -20 -6 -32 -2 -13 1 -23 6 -23 6 0 10 7 10 17 0 14 2 14 20 -2 20 -18 20 -17 19 16 -1 24 -3 27 -6 11 l-4 -22 -19 22 c-11 13 -20 19 -20 13z"/> <path d="M927 723 c-13 -13 -7 -42 11 -52 13 -7 23 -6 30 1 17 17 15 28 -4 28 -8 0 -12 -4 -9 -10 3 -5 -1 -10 -9 -10 -24 0 -19 29 7 40 21 8 21 9 1 9 -11 1 -24 -2 -27 -6z"/> </g> </svg> 